<svg width="24" height="25" viewBox="0 0 24 25" fill="none" xmlns="http://www.w3.org/2000/svg">
<path fill-rule="evenodd" clip-rule="evenodd" d="M5 19.5C5 19.2348 5.10536 18.9804 5.29289 18.7929C5.48043 18.6054 5.73478 18.5 6 18.5H18C18.2652 18.5 18.5196 18.6054 18.7071 18.7929C18.8946 18.9804 19 19.2348 19 19.5C19 19.7652 18.8946 20.0196 18.7071 20.2071C18.5196 20.3946 18.2652 20.5 18 20.5H6C5.73478 20.5 5.48043 20.3946 5.29289 20.2071C5.10536 20.0196 5 19.7652 5 19.5ZM8.293 11.793C8.48053 11.6055 8.73484 11.5002 9 11.5002C9.26516 11.5002 9.51947 11.6055 9.707 11.793L11 13.086V5.5C11 5.23478 11.1054 4.98043 11.2929 4.79289C11.4804 4.60536 11.7348 4.5 12 4.5C12.2652 4.5 12.5196 4.60536 12.7071 4.79289C12.8946 4.98043 13 5.23478 13 5.5V13.086L14.293 11.793C14.3852 11.6975 14.4956 11.6213 14.6176 11.5689C14.7396 11.5165 14.8708 11.4889 15.0036 11.4877C15.1364 11.4866 15.2681 11.5119 15.391 11.5622C15.5139 11.6125 15.6255 11.6867 15.7194 11.7806C15.8133 11.8745 15.8875 11.9861 15.9378 12.109C15.9881 12.2319 16.0134 12.3636 16.0123 12.4964C16.0111 12.6292 15.9835 12.7604 15.9311 12.8824C15.8787 13.0044 15.8025 13.1148 15.707 13.207L12.707 16.207C12.5195 16.3945 12.2652 16.4998 12 16.4998C11.7348 16.4998 11.4805 16.3945 11.293 16.207L8.293 13.207C8.10553 13.0195 8.00021 12.7652 8.00021 12.5C8.00021 12.2348 8.10553 11.9805 8.293 11.793Z" fill="#48535B"/>
</svg>
