<svg width="24" height="24" viewBox="0 0 24 24" fill="none" xmlns="http://www.w3.org/2000/svg">
<path fill-rule="evenodd" clip-rule="evenodd" d="M15 4.5C15 4.08579 15.3358 3.75 15.75 3.75H19.5C19.9142 3.75 20.25 4.08579 20.25 4.5V8.25C20.25 8.66421 19.9142 9 19.5 9C19.0858 9 18.75 8.66421 18.75 8.25V5.25H15.75C15.3358 5.25 15 4.91421 15 4.5Z" fill="black"/>
<path fill-rule="evenodd" clip-rule="evenodd" d="M20.0303 3.96967C20.3232 4.26256 20.3232 4.73744 20.0303 5.03033L14.7803 10.2803C14.4874 10.5732 14.0126 10.5732 13.7197 10.2803C13.4268 9.98744 13.4268 9.51256 13.7197 9.21967L18.9697 3.96967C19.2626 3.67678 19.7374 3.67678 20.0303 3.96967Z" fill="black"/>
<path fill-rule="evenodd" clip-rule="evenodd" d="M4.5 15C4.91421 15 5.25 15.3358 5.25 15.75V18.75H8.25C8.66421 18.75 9 19.0858 9 19.5C9 19.9142 8.66421 20.25 8.25 20.25H4.5C4.08579 20.25 3.75 19.9142 3.75 19.5V15.75C3.75 15.3358 4.08579 15 4.5 15Z" fill="black"/>
<path fill-rule="evenodd" clip-rule="evenodd" d="M10.2803 13.7197C10.5732 14.0126 10.5732 14.4874 10.2803 14.7803L5.03033 20.0303C4.73744 20.3232 4.26256 20.3232 3.96967 20.0303C3.67678 19.7374 3.67678 19.2626 3.96967 18.9697L9.21967 13.7197C9.51256 13.4268 9.98744 13.4268 10.2803 13.7197Z" fill="black"/>
<path fill-rule="evenodd" clip-rule="evenodd" d="M19.5 15C19.9142 15 20.25 15.3358 20.25 15.75V19.5C20.25 19.9142 19.9142 20.25 19.5 20.25H15.75C15.3358 20.25 15 19.9142 15 19.5C15 19.0858 15.3358 18.75 15.75 18.75H18.75V15.75C18.75 15.3358 19.0858 15 19.5 15Z" fill="black"/>
<path fill-rule="evenodd" clip-rule="evenodd" d="M13.7197 13.7197C14.0126 13.4268 14.4874 13.4268 14.7803 13.7197L20.0303 18.9697C20.3232 19.2626 20.3232 19.7374 20.0303 20.0303C19.7374 20.3232 19.2626 20.3232 18.9697 20.0303L13.7197 14.7803C13.4268 14.4874 13.4268 14.0126 13.7197 13.7197Z" fill="black"/>
<path fill-rule="evenodd" clip-rule="evenodd" d="M3.75 4.5C3.75 4.08579 4.08579 3.75 4.5 3.75H8.25C8.66421 3.75 9 4.08579 9 4.5C9 4.91421 8.66421 5.25 8.25 5.25H5.25V8.25C5.25 8.66421 4.91421 9 4.5 9C4.08579 9 3.75 8.66421 3.75 8.25V4.5Z" fill="black"/>
<path fill-rule="evenodd" clip-rule="evenodd" d="M3.96967 3.96967C4.26256 3.67678 4.73744 3.67678 5.03033 3.96967L10.2803 9.21967C10.5732 9.51256 10.5732 9.98744 10.2803 10.2803C9.98744 10.5732 9.51256 10.5732 9.21967 10.2803L3.96967 5.03033C3.67678 4.73744 3.67678 4.26256 3.96967 3.96967Z" fill="black"/>
</svg>
